<svg xmlns="http://www.w3.org/2000/svg" viewBox="0 0 300 360" width="300" height="360">
  <defs>
    <linearGradient id="bodyGrad" x1="0" y1="0" x2="1" y2="1">
      <stop offset="0%" stop-color="#120c14"/>
      <stop offset="45%" stop-color="#231125"/>
      <stop offset="100%" stop-color="#050406"/>
    </linearGradient>
    <linearGradient id="bellyGrad" x1="0" y1="0" x2="1" y2="0">
      <stop offset="0%" stop-color="#8c6420"/>
      <stop offset="55%" stop-color="#d2ab52"/>
      <stop offset="100%" stop-color="#6b4918"/>
    </linearGradient>
    <linearGradient id="hornGrad" x1="0" y1="0" x2="0" y2="1">
      <stop offset="0%" stop-color="#f0c86c"/>
      <stop offset="100%" stop-color="#7b4e18"/>
    </linearGradient>
    <linearGradient id="maneGrad" x1="0" y1="0" x2="1" y2="1">
      <stop offset="0%" stop-color="#4b0c17"/>
      <stop offset="100%" stop-color="#140507"/>
    </linearGradient>
    <radialGradient id="eyeGlow" cx="50%" cy="50%" r="65%">
      <stop offset="0%" stop-color="#ffdf7a"/>
      <stop offset="45%" stop-color="#ff5d3d"/>
      <stop offset="100%" stop-color="#6b0f12"/>
    </radialGradient>
    <radialGradient id="orbGlow" cx="50%" cy="50%" r="70%">
      <stop offset="0%" stop-color="#8a1f2e" stop-opacity="0.65"/>
      <stop offset="100%" stop-color="#8a1f2e" stop-opacity="0"/>
    </radialGradient>
    <filter id="softShadow" x="-30%" y="-30%" width="160%" height="160%">
      <feDropShadow dx="0" dy="7" stdDeviation="7" flood-color="#000000" flood-opacity="0.35"/>
    </filter>
    <filter id="redGlow" x="-60%" y="-60%" width="220%" height="220%">
      <feGaussianBlur stdDeviation="3.2" result="b"/>
      <feMerge>
        <feMergeNode in="b"/>
        <feMergeNode in="SourceGraphic"/>
      </feMerge>
    </filter>
    <filter id="goldGlow" x="-60%" y="-60%" width="220%" height="220%">
      <feGaussianBlur stdDeviation="2.4" result="b"/>
      <feMerge>
        <feMergeNode in="b"/>
        <feMergeNode in="SourceGraphic"/>
      </feMerge>
    </filter>
  </defs>

  <ellipse cx="150" cy="338" rx="92" ry="14" fill="#00000020"/>

  <g filter="url(#softShadow)">
    <path d="M234 258c18 10 27 27 17 42-10 17-37 19-56 9-19-11-23-34-10-47 13-12 33-14 49-4z" fill="url(#bodyGrad)" stroke="#32152a" stroke-width="3"/>
    <path d="M194 204c42 2 71 27 70 59-1 31-32 54-79 54-47 0-83-26-84-61-1-35 37-55 93-52z" fill="url(#bodyGrad)" stroke="#39162e" stroke-width="3"/>
    <path d="M111 158c44-1 79 24 80 58 1 34-30 59-73 60-44 1-84-23-86-59-2-35 34-58 79-59z" fill="url(#bodyGrad)" stroke="#3c1730" stroke-width="3"/>
    <path d="M175 116c37 6 59 28 55 54-5 27-35 44-73 42-39-2-66-23-64-51 2-28 40-52 82-45z" fill="url(#bodyGrad)" stroke="#40172f" stroke-width="3"/>
    <path d="M162 102c17-36 57-51 89-32 19 11 30 31 28 50-3 18-18 30-38 31-14 0-24-3-36 7-10 8-21 18-39 14-19-4-33-18-34-38-1-12 4-23 13-32 7-8 12-14 17-20z" fill="url(#bodyGrad)" stroke="#45192f" stroke-width="3"/>

    <path d="M229 82l18-28 12 8-10 33z" fill="url(#hornGrad)" stroke="#6f4616" stroke-width="2"/>
    <path d="M190 77l-9-31 14-4 19 27z" fill="url(#hornGrad)" stroke="#6f4616" stroke-width="2"/>

    <path d="M159 111c-16-4-24-19-15-33 10-15 31-18 46-9 10 6 15 15 15 24-11-5-24-7-33-3-10 4-11 15-13 21z" fill="url(#maneGrad)"/>
    <path d="M149 127c-16 0-28 10-33 26-4 14-2 31 7 42-18-8-29-26-27-46 1-16 9-32 23-40 10-6 22-8 30-7z" fill="url(#maneGrad)"/>
    <path d="M132 112c-13 10-22 23-25 39-3 15 0 30 10 44-18-11-27-31-23-52 5-21 18-35 38-44z" fill="#5a111d"/>

    <path d="M198 97c12-8 26-8 34 1 6 7 7 16 1 24-8 9-24 12-36 4-10-7-10-21 1-29z" fill="#0c080d"/>
    <path d="M238 101c9-6 21-5 28 1 7 6 8 16 2 24-8 10-23 11-33 6-11-7-10-21 3-31z" fill="#0c080d"/>
    <ellipse cx="210" cy="111" rx="12" ry="10" fill="url(#orbGlow)" filter="url(#redGlow)"/>
    <ellipse cx="240" cy="114" rx="11" ry="10" fill="url(#orbGlow)" filter="url(#redGlow)"/>
    <ellipse cx="210" cy="111" rx="10" ry="8" fill="url(#eyeGlow)"/>
    <ellipse cx="240" cy="114" rx="9" ry="8" fill="url(#eyeGlow)"/>
    <path d="M208 104c4 5 4 13 0 18-3-1-5-4-5-9 0-4 2-7 5-9z" fill="#140406"/>
    <path d="M240 107c4 5 4 13 0 18-3-1-5-4-5-9 0-4 2-7 5-9z" fill="#140406"/>
    <path d="M192 90c10-8 25-11 39-8 5 2 6 7 2 9-17-2-28 0-41 7z" fill="#160609"/>
    <path d="M227 93c9-7 22-10 35-7 5 1 6 6 3 9-15-2-25-1-38 6z" fill="#160609"/>

    <path d="M181 146c18 7 37 9 58 6-8 15-24 24-43 25-18 0-34-8-44-24 9-1 19-3 29-7z" fill="url(#bellyGrad)" stroke="#7d5a22" stroke-width="2"/>
    <path d="M140 189c13-11 27-16 43-16 17 0 33 5 48 15-14 4-27 7-40 8-19 1-35-1-51-7z" fill="url(#bellyGrad)" stroke="#7e5a23" stroke-width="2"/>
    <path d="M93 230c13-11 27-16 43-16 17 0 34 5 49 15-14 4-28 7-41 8-19 1-35-1-51-7z" fill="url(#bellyGrad)" stroke="#7e5a23" stroke-width="2"/>
    <path d="M145 277c12-8 24-12 37-12 14 0 28 4 40 11-11 4-22 6-34 6-16 0-30-1-43-5z" fill="url(#bellyGrad)" stroke="#7e5a23" stroke-width="2"/>

    <path d="M137 145l-9 18" stroke="#5c1321" stroke-width="5" stroke-linecap="round"/>
    <path d="M153 136l-8 18" stroke="#5c1321" stroke-width="5" stroke-linecap="round"/>
    <path d="M171 129l-6 18" stroke="#5c1321" stroke-width="5" stroke-linecap="round"/>
    <path d="M190 124l-4 17" stroke="#5c1321" stroke-width="5" stroke-linecap="round"/>
    <path d="M205 211l-11 19" stroke="#5c1321" stroke-width="5" stroke-linecap="round"/>
    <path d="M224 216l-7 18" stroke="#5c1321" stroke-width="5" stroke-linecap="round"/>
    <path d="M124 255l-10 16" stroke="#5c1321" stroke-width="5" stroke-linecap="round"/>
    <path d="M143 262l-7 15" stroke="#5c1321" stroke-width="5" stroke-linecap="round"/>

    <path d="M246 143c-17 9-46 13-77 10" fill="none" stroke="#5a1623" stroke-width="3" stroke-linecap="round"/>

    <path d="M164 133c-8 21-21 39-41 53" fill="none" stroke="#d0a34d" stroke-width="3" stroke-linecap="round" filter="url(#goldGlow)"/>
    <path d="M250 129c18 11 31 24 39 40" fill="none" stroke="#d0a34d" stroke-width="3" stroke-linecap="round" filter="url(#goldGlow)"/>

    <path d="M142 188c-5 11-14 18-24 21 2-10 7-18 15-24z" fill="#0d090d" stroke="#3d1730" stroke-width="2"/>
    <path d="M129 208l-10 11" stroke="#d1ab55" stroke-width="3" stroke-linecap="round"/>
    <path d="M136 210l-8 13" stroke="#d1ab55" stroke-width="3" stroke-linecap="round"/>
    <path d="M143 210l-5 13" stroke="#d1ab55" stroke-width="3" stroke-linecap="round"/>

    <path d="M231 190c10 6 17 15 19 27-11-3-19 0-26 8-7-11-5-24 7-35z" fill="#0d090d" stroke="#3d1730" stroke-width="2"/>
    <path d="M244 216l10 9" stroke="#d1ab55" stroke-width="3" stroke-linecap="round"/>
    <path d="M237 220l9 11" stroke="#d1ab55" stroke-width="3" stroke-linecap="round"/>
    <path d="M229 220l6 12" stroke="#d1ab55" stroke-width="3" stroke-linecap="round"/>

    <circle cx="200" cy="136" r="2.2" fill="#f6d77b"/>
    <circle cx="217" cy="140" r="2.2" fill="#f6d77b"/>
    <circle cx="235" cy="141" r="2.2" fill="#f6d77b"/>
  </g>
</svg>
